<svg id="Layer_1" enable-background="new 0 0 256 256" height="512" viewBox="0 0 256 256" width="512" xmlns="http://www.w3.org/2000/svg"><path d="m62.959 187.012c-.974 11.564-13.024 13.389-13.024 13.389 10.347.487 12.925 14.059 12.925 14.059.221-9.677 13.321-14.202 13.321-14.202-9.814-.587-13.222-13.246-13.222-13.246z" fill="#d7e057"/><path d="m76.271 198.762c-8.606-.516-11.833-12.025-11.864-12.142-.191-.702-.863-1.16-1.583-1.102-.725.066-1.298.642-1.359 1.367-.86 10.216-11.313 11.964-11.754 12.032-.763.116-1.313.791-1.273 1.561.04.771.657 1.385 1.427 1.421 9.028.426 11.499 12.719 11.523 12.844.137.711.759 1.217 1.472 1.217.042 0 .084-.002.126-.005.764-.064 1.357-.693 1.375-1.46.195-8.509 12.192-12.777 12.313-12.819.675-.234 1.092-.914.994-1.622-.1-.708-.684-1.249-1.397-1.292zm-13.567 10.345c-1.356-3.131-3.709-6.908-7.587-8.877 2.931-1.405 6.409-3.913 8.202-8.273 1.551 3.071 4.2 6.881 8.334 8.723-3.007 1.64-6.923 4.406-8.949 8.427z" fill="#3a312a"/><path d="m41.26 203.992c-.689 8.179-9.212 9.47-9.212 9.47 7.318.344 9.142 9.944 9.142 9.944.156-6.844 9.422-10.045 9.422-10.045-6.941-.414-9.352-9.369-9.352-9.369z" fill="#d7e057"/><path d="m50.702 211.865c-5.767-.346-7.973-8.187-7.994-8.266-.19-.702-.855-1.171-1.582-1.102-.726.065-1.299.643-1.36 1.368-.579 6.871-7.646 8.066-7.942 8.113-.763.116-1.313.791-1.274 1.561.04.771.657 1.385 1.427 1.421 6.036.284 7.724 8.645 7.74 8.727.135.713.759 1.22 1.472 1.22.042 0 .083-.002.125-.005.765-.063 1.358-.693 1.376-1.461.13-5.709 8.331-8.633 8.412-8.661.676-.233 1.094-.913.996-1.622s-.682-1.25-1.396-1.293zm-9.585 6.794c-.924-1.886-2.34-3.947-4.447-5.279 1.856-1.041 3.697-2.63 4.871-4.916 1.057 1.873 2.654 3.954 4.941 5.224-1.85 1.099-3.989 2.74-5.365 4.971z" fill="#3a312a"/><path d="m41.26 177.335c-.689 8.179-9.212 9.471-9.212 9.471 7.318.344 9.142 9.944 9.142 9.944.156-6.845 9.422-10.045 9.422-10.045-6.941-.416-9.352-9.37-9.352-9.37z" fill="#d7e057"/><path d="m50.701 185.207c-5.766-.345-7.972-8.186-7.994-8.265-.19-.702-.851-1.175-1.582-1.102-.726.065-1.299.643-1.36 1.368-.579 6.871-7.646 8.066-7.942 8.113-.763.116-1.313.791-1.274 1.561.04.771.657 1.385 1.427 1.421 6.036.284 7.724 8.645 7.74 8.727.135.713.759 1.22 1.473 1.22.041 0 .083-.002.124-.005.765-.063 1.358-.693 1.376-1.461.13-5.709 8.331-8.634 8.412-8.662.677-.234 1.094-.913.996-1.622-.097-.709-.681-1.251-1.396-1.293zm-9.584 6.795c-.924-1.886-2.34-3.947-4.447-5.279 1.856-1.041 3.697-2.63 4.871-4.917 1.057 1.874 2.654 3.955 4.941 5.224-1.85 1.1-3.989 2.74-5.365 4.972z" fill="#3a312a"/><path d="m156.649 43.657-93.58-26.725c-8.339-2.382-17.03 2.448-19.412 10.787l-7.015 24.564-3.938 13.79-15.772 55.225c-2.382 8.339 2.448 17.03 10.787 19.412l93.579 26.725c8.339 2.381 17.03-2.448 19.412-10.787l26.725-93.579c2.383-8.339-2.447-17.03-10.786-19.412z" fill="#8ac5dc"/><path d="m167.374 50.4c-2.232-4.017-5.895-6.924-10.314-8.186l-93.579-26.724c-4.417-1.26-9.063-.728-13.081 1.505-4.017 2.231-6.924 5.895-8.186 10.313l-7.014 24.564c-.228.797.234 1.627 1.03 1.854.796.225 1.627-.233 1.855-1.03l7.015-24.564c1.042-3.648 3.442-6.672 6.758-8.515 3.316-1.844 7.153-2.283 10.799-1.242l93.579 26.725c3.648 1.042 6.672 3.442 8.515 6.759 1.843 3.315 2.284 7.151 1.242 10.799l-26.725 93.579c-1.042 3.648-3.442 6.672-6.759 8.515-3.316 1.844-7.151 2.286-10.799 1.242l-93.579-26.725c-7.531-2.15-11.908-10.027-9.757-17.558l15.772-55.225c.228-.797-.234-1.627-1.03-1.854-.796-.226-1.627.232-1.855 1.03l-15.771 55.225c-2.604 9.121 2.697 18.661 11.818 21.267l93.579 26.725c1.568.447 3.164.669 4.75.669 2.885 0 5.739-.733 8.331-2.173 4.017-2.232 6.924-5.895 8.185-10.313l26.725-93.579c1.262-4.42.727-9.065-1.504-13.083z" fill="#3a312a"/><path d="m74.472 39.824c-7.474-2.135-15.263 2.194-17.398 9.668s2.194 15.263 9.668 17.398c7.474 2.134 15.263-2.194 17.398-9.668s-2.193-15.264-9.668-17.398z" fill="#fae6ca"/><path d="m84.221 45.792c-2.021-3.637-5.336-6.269-9.336-7.41-4.001-1.143-8.206-.659-11.842 1.361-3.636 2.021-6.268 5.337-7.411 9.337-1.142 4-.658 8.206 1.362 11.842 2.021 3.637 5.337 6.269 9.336 7.41 1.419.405 2.864.605 4.3.605 2.612 0 5.196-.663 7.542-1.967 3.636-2.021 6.268-5.337 7.41-9.337 1.144-3.999.66-8.204-1.361-11.841zm-1.523 11.018c-.922 3.229-3.047 5.907-5.983 7.538-2.935 1.631-6.329 2.021-9.561 1.1-3.229-.922-5.906-3.047-7.538-5.982-1.631-2.936-2.022-6.331-1.1-9.561s3.047-5.907 5.983-7.538c1.894-1.053 3.98-1.589 6.089-1.589 1.159 0 2.326.162 3.472.489 3.229.922 5.906 3.047 7.538 5.982 1.632 2.936 2.023 6.331 1.1 9.561z" fill="#3a312a"/><ellipse cx="113.761" cy="131.011" fill="#fae6ca" rx="14.074" ry="14.074" transform="matrix(.998 -.057 .057 .998 -7.279 6.694)"/><path d="m127.374 123.446c-2.021-3.636-5.336-6.268-9.336-7.41-8.258-2.356-16.895 2.44-19.252 10.698-2.358 8.258 2.441 16.895 10.699 19.253 1.424.406 2.857.6 4.27.6 6.778 0 13.031-4.466 14.982-11.299 1.142-4 .659-8.205-1.363-11.842zm-1.522 11.018c-1.903 6.667-8.875 10.542-15.543 8.639-6.667-1.904-10.542-8.877-8.638-15.544 1.576-5.518 6.623-9.123 12.095-9.123 1.14 0 2.299.157 3.448.485 3.23.923 5.907 3.047 7.539 5.983 1.63 2.936 2.021 6.33 1.099 9.56z" fill="#3a312a"/><ellipse cx="131.011" cy="70.608" fill="#fae6ca" rx="14.074" ry="14.074" transform="matrix(.627 -.779 .779 .627 -6.132 128.409)"/><path d="m135.288 55.632c-3.998-1.143-8.205-.659-11.842 1.362-3.636 2.021-6.268 5.336-7.41 9.336-2.358 8.258 2.441 16.895 10.698 19.253 1.424.406 2.858.601 4.271.601 6.777 0 13.029-4.466 14.981-11.299 2.359-8.258-2.441-16.895-10.698-19.253zm7.814 18.429c-1.904 6.668-8.878 10.543-15.544 8.638-6.667-1.904-10.542-8.877-8.638-15.544.922-3.229 3.047-5.906 5.983-7.538 2.936-1.631 6.33-2.022 9.56-1.1 6.668 1.904 10.543 8.877 8.639 15.544z" fill="#3a312a"/><ellipse cx="53.357" cy="113.761" fill="#fae6ca" rx="14.074" ry="14.074" transform="matrix(.318 -.948 .948 .318 -71.467 128.162)"/><path d="m57.634 98.785c-8.258-2.356-16.895 2.44-19.253 10.698s2.442 16.895 10.699 19.253c1.424.406 2.858.601 4.271.601 6.777 0 13.03-4.466 14.981-11.299 2.358-8.258-2.441-16.894-10.698-19.253zm7.814 18.429c-1.904 6.667-8.877 10.54-15.543 8.638-6.667-1.904-10.542-8.877-8.638-15.544 1.576-5.518 6.623-9.123 12.095-9.123 1.14 0 2.299.157 3.448.485 6.667 1.904 10.542 8.877 8.638 15.544z" fill="#3a312a"/><path d="m239.184 196.019-24.066-94.298c-2.145-8.403-10.695-13.477-19.099-11.333l-58.526 14.937-13.404 3.421-22.369 5.709c-8.403 2.145-13.477 10.695-11.332 19.099l24.066 94.298c2.145 8.404 10.696 13.477 19.099 11.333l94.298-24.066c8.404-2.146 13.477-10.696 11.333-19.1z" fill="#f16c7a"/><path d="m240.637 195.648-24.065-94.298c-1.136-4.452-3.939-8.196-7.89-10.541-3.952-2.346-8.582-3.009-13.033-1.874l-58.526 14.937c-.803.204-1.287 1.021-1.082 1.824.205.802 1.018 1.29 1.824 1.082l58.526-14.937c3.675-.938 7.496-.388 10.76 1.548 3.263 1.937 5.576 5.027 6.515 8.703l24.065 94.298c.938 3.676.389 7.497-1.548 10.76-1.935 3.263-5.026 5.576-8.702 6.515l-94.298 24.065c-7.582 1.937-15.338-2.661-17.274-10.25l-24.066-94.298c-.938-3.676-.389-7.497 1.547-10.76 1.936-3.264 5.026-5.577 8.703-6.515l22.369-5.709c.803-.204 1.287-1.021 1.083-1.824-.205-.802-1.02-1.291-1.825-1.082l-22.368 5.709c-4.453 1.136-8.196 3.938-10.541 7.89s-3.011 8.58-1.875 13.033l24.066 94.298c1.983 7.77 8.997 12.95 16.672 12.95 1.404 0 2.83-.173 4.252-.536l94.298-24.065c4.452-1.136 8.195-3.938 10.54-7.89 2.343-3.952 3.009-8.579 1.873-13.033z" fill="#3a312a"/><path d="m140.222 138.639c-1.922-7.532-9.586-12.079-17.117-10.157s-12.079 9.586-10.157 17.117c1.922 7.532 9.586 12.079 17.117 10.157 7.532-1.922 12.079-9.585 10.157-17.117z" fill="#fae6ca"/><path d="m141.676 138.268c-2.123-8.32-10.619-13.361-18.942-11.238-4.031 1.028-7.419 3.565-9.542 7.143s-2.725 7.768-1.697 11.799c1.795 7.034 8.145 11.725 15.093 11.725 1.271 0 2.563-.157 3.849-.485 8.32-2.126 13.362-10.624 11.239-18.944zm-11.982 16.036c-6.717 1.71-13.578-2.355-15.292-9.075-.831-3.254-.344-6.637 1.37-9.525s4.45-4.937 7.705-5.768c1.039-.265 2.081-.392 3.108-.392 5.609 0 10.736 3.787 12.185 9.466 1.713 6.718-2.358 13.578-9.076 15.294z" fill="#3a312a"/><ellipse cx="164.786" cy="164.786" fill="#fae6ca" rx="14.074" ry="14.074" transform="matrix(.47 -.883 .883 .47 -58.128 232.744)"/><path d="m179.877 160.935c-2.124-8.32-10.624-13.361-18.942-11.238-8.32 2.123-13.362 10.62-11.238 18.941 1.795 7.034 8.143 11.725 15.092 11.725 1.271 0 2.563-.157 3.85-.485 8.319-2.125 13.361-10.623 11.238-18.943zm-11.981 16.036c-6.717 1.713-13.578-2.356-15.293-9.075-1.714-6.718 2.357-13.578 9.074-15.293 1.039-.265 2.081-.392 3.107-.392 5.609 0 10.736 3.787 12.187 9.466 1.714 6.718-2.358 13.578-9.075 15.294z" fill="#3a312a"/><path d="m216.624 183.973c-1.922-7.531-9.586-12.079-17.117-10.157-7.532 1.922-12.079 9.586-10.157 17.117s9.586 12.079 17.117 10.157c7.532-1.922 12.08-9.586 10.157-17.117z" fill="#fae6ca"/><path d="m218.077 183.602c-1.028-4.03-3.565-7.42-7.143-9.542-3.577-2.123-7.767-2.726-11.799-1.696-4.03 1.028-7.42 3.565-9.542 7.143-2.123 3.578-2.726 7.769-1.696 11.799 1.028 4.03 3.565 7.42 7.143 9.542 2.438 1.446 5.158 2.188 7.92 2.187 1.292 0 2.594-.162 3.879-.49 4.03-1.028 7.42-3.565 9.542-7.143 2.123-3.579 2.725-7.769 1.696-11.8zm-4.276 10.268c-1.714 2.888-4.449 4.936-7.704 5.767-3.252.829-6.637.345-9.525-1.37-2.889-1.714-4.937-4.449-5.768-7.704-.831-3.254-.344-6.637 1.37-9.525 1.714-2.889 4.449-4.937 7.704-5.768 1.037-.265 2.088-.396 3.132-.396 2.229 0 4.426.598 6.393 1.766 2.889 1.714 4.937 4.449 5.768 7.704.83 3.255.344 6.637-1.37 9.526z" fill="#3a312a"/><path d="m237.734 196.394-24.07-94.3c-.94-3.68-3.25-6.77-6.51-8.7-2.23-1.32-4.71-2-7.23-2-1.18 0-2.36.15-3.53.45l-4.83 1.23c.2.1.4.21.59.32 3.26 1.93 5.57 5.02 6.51 8.7l24.07 94.3c.93 3.67.38 7.49-1.55 10.76-1.94 3.26-5.03 5.57-8.7 6.51l-89.47 22.84c3.01 1.61 6.61 2.14 10.17 1.23l94.3-24.07c3.67-.94 6.76-3.25 8.7-6.51 1.93-3.27 2.48-7.09 1.55-10.76z" fill="#d24e5c"/></svg>